STARTFONT 2.1
COMMENT
COMMENT  Copyright (c) 2001, Poonlap Veerathanabutr
COMMENT
COMMENT  License to copy and distribute for both commercial and
COMMENT  non-commercial use is herby granted, provided this notice
COMMENT  is preserved.
COMMENT
COMMENT  Poonlap.Veerathanabutr@japan.sun.com
COMMENT  This font is my hobby, there is nothing related with Sun Microsystems.
COMMENT  The motivation is I want to use some Thai font with emacs but I don't 
COMMENT  like the default one. This font is a bit big but the "head" of thai shows
COMMENT  apparently which I think it is important.
COMMENT
COMMENT  Produced with bdfedit, a tcl/tk font editing program
COMMENT  written by Thomas A. Fine
FONT -poonlap-fixed-bold-r-normal--20-140-100-100-m-11-tis620-0
SIZE 20 100 100
FONTBOUNDINGBOX 22 26 -11 -6
STARTPROPERTIES 11
FOUNDRY "poonlap"
FAMILY_NAME "fixed"
WEIGHT_NAME "Medium"
SLANT "R"
SETWIDTH_NAME "Normal"
SPACING "c"
CHARSET_REGISTRY "ISO-8859"
CHARSET_ENCODING "1"
COPYRIGHT "Copyright (c) 2001 Poonlap Veerathanabutr Poonlap.Veerathanabutr@japan.sun.com"
FONT_ASCENT  20
FONT_DESCENT 6
ENDPROPERTIES
CHARS 191
STARTCHAR space
ENCODING 32
SWIDTH 550 0
DWIDTH 11 0
BBX 0 0 0 0
BITMAP
ENDCHAR
STARTCHAR exclam
ENCODING 33
SWIDTH 550 0
DWIDTH 11 0
BBX 3 12 4 0
BITMAP
e0
e0
e0
e0
e0
e0
40
40
00
00
e0
e0
ENDCHAR
STARTCHAR quotedbl
ENCODING 34
SWIDTH 550 0
DWIDTH 11 0
BBX 7 5 2 7
BITMAP
ee
ee
66
22
22
ENDCHAR
STARTCHAR numbersign
ENCODING 35
SWIDTH 550 0
DWIDTH 11 0
BBX 9 15 1 -2
BITMAP
1b00
1b00
1b00
1b00
1b00
7f80
3600
3600
3600
ff00
3600
3600
3600
3600
3600
ENDCHAR
STARTCHAR dollar
ENCODING 36
SWIDTH 550 0
DWIDTH 11 0
BBX 6 15 2 -2
BITMAP
18
18
7c
cc
cc
c0
60
18
0c
cc
cc
b8
30
30
30
ENDCHAR
STARTCHAR percent
ENCODING 37
SWIDTH 550 0
DWIDTH 11 0
BBX 9 12 1 0
BITMAP
3800
7c00
6c00
7c00
3980
0f80
3000
ce00
df00
1b00
1f00
0e00
ENDCHAR
STARTCHAR ampersand
ENCODING 38
SWIDTH 550 0
DWIDTH 11 0
BBX 7 10 2 0
BITMAP
38
70
60
60
30
76
ec
cc
dc
66
ENDCHAR
STARTCHAR quoteright
ENCODING 39
SWIDTH 550 0
DWIDTH 11 0
BBX 5 5 3 7
BITMAP
38
38
70
60
80
ENDCHAR
STARTCHAR parenleft
ENCODING 40
SWIDTH 550 0
DWIDTH 11 0
BBX 4 14 5 -2
BITMAP
30
60
60
c0
c0
c0
c0
c0
c0
c0
c0
60
60
30
ENDCHAR
STARTCHAR parenright
ENCODING 41
SWIDTH 550 0
DWIDTH 11 0
BBX 4 14 3 -2
BITMAP
c0
60
60
30
30
30
30
30
30
30
30
60
60
c0
ENDCHAR
STARTCHAR asterisk
ENCODING 42
SWIDTH 550 0
DWIDTH 11 0
BBX 8 8 2 3
BITMAP
18
18
18
ff
ff
3c
66
66
ENDCHAR
STARTCHAR plus
ENCODING 43
SWIDTH 550 0
DWIDTH 11 0
BBX 10 10 1 0
BITMAP
0c00
0c00
0c00
0c00
ffc0
ffc0
0c00
0c00
0c00
0c00
ENDCHAR
STARTCHAR comma
ENCODING 44
SWIDTH 550 0
DWIDTH 11 0
BBX 5 5 3 -3
BITMAP
38
38
70
60
80
ENDCHAR
STARTCHAR minus
ENCODING 45
SWIDTH 550 0
DWIDTH 11 0
BBX 9 2 1 4
BITMAP
ff80
ff80
ENDCHAR
STARTCHAR period
ENCODING 46
SWIDTH 550 0
DWIDTH 11 0
BBX 4 4 3 -1
BITMAP
60
f0
f0
60
ENDCHAR
STARTCHAR slash
ENCODING 47
SWIDTH 550 0
DWIDTH 11 0
BBX 9 16 1 -3
BITMAP
0180
0180
0300
0300
0600
0600
0c00
0c00
1800
1800
3000
3000
6000
6000
c000
c000
ENDCHAR
STARTCHAR zero
ENCODING 48
SWIDTH 550 0
DWIDTH 11 0
BBX 7 12 2 0
BITMAP
38
6c
c6
c6
c6
c6
c6
c6
c6
c6
6c
38
ENDCHAR
STARTCHAR one
ENCODING 49
SWIDTH 550 0
DWIDTH 11 0
BBX 7 12 2 0
BITMAP
38
d8
18
18
18
18
18
18
18
18
18
fe
ENDCHAR
STARTCHAR two
ENCODING 50
SWIDTH 550 0
DWIDTH 11 0
BBX 8 12 1 0
BITMAP
1c
36
63
43
03
03
06
0c
18
33
63
ff
ENDCHAR
STARTCHAR three
ENCODING 51
SWIDTH 550 0
DWIDTH 11 0
BBX 7 12 2 0
BITMAP
78
cc
06
06
0c
38
0c
06
06
06
cc
78
ENDCHAR
STARTCHAR four
ENCODING 52
SWIDTH 550 0
DWIDTH 11 0
BBX 8 12 0 0
BITMAP
0e
1e
1e
36
36
66
66
c6
ff
06
06
1f
ENDCHAR
STARTCHAR five
ENCODING 53
SWIDTH 550 0
DWIDTH 11 0
BBX 8 12 1 0
BITMAP
7e
60
60
60
7c
66
03
03
03
c3
c6
7c
ENDCHAR
STARTCHAR six
ENCODING 54
SWIDTH 550 0
DWIDTH 11 0
BBX 7 12 2 0
BITMAP
1c
70
60
c0
c0
f8
cc
c6
c6
c6
6c
38
ENDCHAR
STARTCHAR seven
ENCODING 55
SWIDTH 550 0
DWIDTH 11 0
BBX 7 12 2 0
BITMAP
fe
86
06
06
0c
0c
0c
0c
18
18
18
18
ENDCHAR
STARTCHAR eight
ENCODING 56
SWIDTH 550 0
DWIDTH 11 0
BBX 7 12 2 0
BITMAP
38
6c
c6
c6
44
38
6c
c6
c6
c6
6c
38
ENDCHAR
STARTCHAR nine
ENCODING 57
SWIDTH 550 0
DWIDTH 11 0
BBX 7 12 2 0
BITMAP
38
6c
c6
c6
c6
6e
3e
06
06
0c
1c
70
ENDCHAR
STARTCHAR colon
ENCODING 58
SWIDTH 550 0
DWIDTH 11 0
BBX 3 10 4 -1
BITMAP
40
e0
e0
40
00
00
40
e0
e0
40
ENDCHAR
STARTCHAR semicolon
ENCODING 59
SWIDTH 550 0
DWIDTH 11 0
BBX 5 12 2 -3
BITMAP
10
38
38
10
00
00
00
38
38
70
60
80
ENDCHAR
STARTCHAR less
ENCODING 60
SWIDTH 550 0
DWIDTH 11 0
BBX 10 9 0 1
BITMAP
01c0
0700
1c00
7000
c000
7000
1c00
0700
01c0
ENDCHAR
STARTCHAR equal
ENCODING 61
SWIDTH 550 0
DWIDTH 11 0
BBX 9 6 1 2
BITMAP
ff80
ff80
0000
0000
ff80
ff80
ENDCHAR
STARTCHAR greater
ENCODING 62
SWIDTH 550 0
DWIDTH 11 0
BBX 10 9 0 1
BITMAP
e000
3800
0e00
0380
00c0
0380
0e00
3800
e000
ENDCHAR
STARTCHAR question
ENCODING 63
SWIDTH 550 0
DWIDTH 11 0
BBX 7 11 2 0
BITMAP
7c
ce
c6
06
06
1c
18
18
00
1c
1c
ENDCHAR
STARTCHAR at
ENCODING 64
SWIDTH 550 0
DWIDTH 11 0
BBX 8 13 2 -1
BITMAP
38
6c
c6
c6
ce
da
da
db
cf
c0
c3
67
3e
ENDCHAR
STARTCHAR A
ENCODING 65
SWIDTH 550 0
DWIDTH 11 0
BBX 9 11 1 0
BITMAP
0800
0800
1c00
1c00
3600
3600
6300
7f00
c180
c180
c180
ENDCHAR
STARTCHAR B
ENCODING 66
SWIDTH 550 0
DWIDTH 11 0
BBX 8 11 2 0
BITMAP
f8
cc
c6
c6
cc
fc
c6
c3
c3
c6
fc
ENDCHAR
STARTCHAR C
ENCODING 67
SWIDTH 550 0
DWIDTH 11 0
BBX 9 11 1 0
BITMAP
1e00
7300
6180
c000
c000
c000
c000
c000
6180
7300
1e00
ENDCHAR
STARTCHAR D
ENCODING 68
SWIDTH 550 0
DWIDTH 11 0
BBX 8 11 2 0
BITMAP
f8
ce
c6
c3
c3
c3
c3
c3
c6
ce
f8
ENDCHAR
STARTCHAR E
ENCODING 69
SWIDTH 550 0
DWIDTH 11 0
BBX 7 11 2 0
BITMAP
fe
c0
c0
c0
c0
fc
c0
c0
c0
c0
fe
ENDCHAR
STARTCHAR F
ENCODING 70
SWIDTH 550 0
DWIDTH 11 0
BBX 7 11 2 0
BITMAP
fe
c0
c0
c0
c0
f0
c0
c0
c0
c0
c0
ENDCHAR
STARTCHAR G
ENCODING 71
SWIDTH 550 0
DWIDTH 11 0
BBX 9 11 1 0
BITMAP
1e00
3300
6180
c000
c000
c000
c380
c180
6180
3300
1e00
ENDCHAR
STARTCHAR H
ENCODING 72
SWIDTH 550 0
DWIDTH 11 0
BBX 7 11 2 0
BITMAP
c6
c6
c6
c6
c6
fe
c6
c6
c6
c6
c6
ENDCHAR
STARTCHAR I
ENCODING 73
SWIDTH 550 0
DWIDTH 11 0
BBX 6 11 2 0
BITMAP
fc
30
30
30
30
30
30
30
30
30
fc
ENDCHAR
STARTCHAR J
ENCODING 74
SWIDTH 550 0
DWIDTH 11 0
BBX 7 11 1 0
BITMAP
0e
06
06
06
06
06
c6
c6
c6
6c
38
ENDCHAR
STARTCHAR K
ENCODING 75
SWIDTH 550 0
DWIDTH 11 0
BBX 7 11 2 0
BITMAP
c6
c6
cc
c8
d0
f0
c8
cc
cc
c6
c6
ENDCHAR
STARTCHAR L
ENCODING 76
SWIDTH 550 0
DWIDTH 11 0
BBX 7 11 3 0
BITMAP
c0
c0
c0
c0
c0
c0
c0
c0
c0
c0
fe
ENDCHAR
STARTCHAR M
ENCODING 77
SWIDTH 550 0
DWIDTH 11 0
BBX 9 11 1 0
BITMAP
c180
c180
e380
e380
f780
d580
dd80
c980
c180
c180
c180
ENDCHAR
STARTCHAR N
ENCODING 78
SWIDTH 550 0
DWIDTH 11 0
BBX 7 11 2 0
BITMAP
c6
c6
e6
e6
d6
d6
ce
ce
c6
c6
c6
ENDCHAR
STARTCHAR O
ENCODING 79
SWIDTH 550 0
DWIDTH 11 0
BBX 9 11 1 0
BITMAP
1c00
7700
6300
c180
c180
c180
c180
c180
6300
7700
1c00
ENDCHAR
STARTCHAR P
ENCODING 80
SWIDTH 550 0
DWIDTH 11 0
BBX 8 11 2 0
BITMAP
fc
c6
c3
c3
c6
fc
c0
c0
c0
c0
c0
ENDCHAR
STARTCHAR Q
ENCODING 81
SWIDTH 550 0
DWIDTH 11 0
BBX 9 12 1 -1
BITMAP
1c00
7700
6300
c180
c180
c180
c180
cd80
6700
7700
1f80
0180
ENDCHAR
STARTCHAR R
ENCODING 82
SWIDTH 550 0
DWIDTH 11 0
BBX 8 11 2 0
BITMAP
fc
c6
c3
c3
c6
fc
cc
cc
cc
c6
c7
ENDCHAR
STARTCHAR S
ENCODING 83
SWIDTH 550 0
DWIDTH 11 0
BBX 8 11 1 0
BITMAP
3c
66
c3
c0
60
3c
06
03
c3
66
3c
ENDCHAR
STARTCHAR T
ENCODING 84
SWIDTH 550 0
DWIDTH 11 0
BBX 9 11 1 0
BITMAP
ff80
1800
1800
1800
1800
1800
1800
1800
1800
1800
1800
ENDCHAR
STARTCHAR U
ENCODING 85
SWIDTH 550 0
DWIDTH 11 0
BBX 8 11 1 0
BITMAP
c3
c3
c3
c3
c3
c3
c3
c3
c3
42
3c
ENDCHAR
STARTCHAR V
ENCODING 86
SWIDTH 550 0
DWIDTH 11 0
BBX 9 11 1 0
BITMAP
c080
c180
c180
6300
6300
3600
3600
1c00
1c00
0800
0800
ENDCHAR
STARTCHAR W
ENCODING 87
SWIDTH 550 0
DWIDTH 11 0
BBX 9 11 1 0
BITMAP
c180
c180
c980
c980
dd80
5d00
5500
7700
7700
2200
2200
ENDCHAR
STARTCHAR X
ENCODING 88
SWIDTH 550 0
DWIDTH 11 0
BBX 7 11 2 0
BITMAP
c6
c6
6c
6c
38
38
38
6c
6c
c6
c6
ENDCHAR
STARTCHAR Y
ENCODING 89
SWIDTH 550 0
DWIDTH 11 0
BBX 7 11 2 0
BITMAP
c6
c6
6c
6c
28
38
30
30
30
30
30
ENDCHAR
STARTCHAR Z
ENCODING 90
SWIDTH 550 0
DWIDTH 11 0
BBX 7 11 2 0
BITMAP
fe
06
06
06
0c
18
30
60
c0
c0
fe
ENDCHAR
STARTCHAR bracketleft
ENCODING 91
SWIDTH 550 0
DWIDTH 11 0
BBX 3 15 5 -3
BITMAP
e0
c0
c0
c0
c0
c0
c0
c0
c0
c0
c0
c0
c0
c0
e0
ENDCHAR
STARTCHAR backslash
ENCODING 92
SWIDTH 550 0
DWIDTH 11 0
BBX 9 16 2 -3
BITMAP
c000
c000
6000
6000
3000
3000
1800
1800
0c00
0c00
0600
0600
0300
0300
0180
0180
ENDCHAR
STARTCHAR bracketright
ENCODING 93
SWIDTH 550 0
DWIDTH 11 0
BBX 3 15 3 -3
BITMAP
e0
60
60
60
60
60
60
60
60
60
60
60
60
60
e0
ENDCHAR
STARTCHAR asciicircum
ENCODING 94
SWIDTH 550 0
DWIDTH 11 0
BBX 7 4 2 8
BITMAP
10
38
64
c2
ENDCHAR
STARTCHAR underscore
ENCODING 95
SWIDTH 550 0
DWIDTH 11 0
BBX 11 2 0 -4
BITMAP
ffe0
ffe0
ENDCHAR
STARTCHAR quoteleft
ENCODING 96
SWIDTH 550 0
DWIDTH 11 0
BBX 5 5 2 7
BITMAP
e0
e0
70
30
08
ENDCHAR
STARTCHAR a
ENCODING 97
SWIDTH 550 0
DWIDTH 11 0
BBX 7 8 2 0
BITMAP
3c
66
06
7e
c6
c6
c6
7a
ENDCHAR
STARTCHAR b
ENCODING 98
SWIDTH 550 0
DWIDTH 11 0
BBX 8 12 2 0
BITMAP
c0
c0
c0
c0
fc
e6
c3
c3
c3
c3
e6
bc
ENDCHAR
STARTCHAR c
ENCODING 99
SWIDTH 550 0
DWIDTH 11 0
BBX 7 8 1 0
BITMAP
3c
66
c0
c0
c0
c0
66
3c
ENDCHAR
STARTCHAR d
ENCODING 100
SWIDTH 550 0
DWIDTH 11 0
BBX 8 12 1 0
BITMAP
03
03
03
03
3f
63
c3
c3
c3
c3
67
3d
ENDCHAR
STARTCHAR e
ENCODING 101
SWIDTH 550 0
DWIDTH 11 0
BBX 8 8 1 0
BITMAP
3c
66
c3
ff
c0
c0
63
3e
ENDCHAR
STARTCHAR f
ENCODING 102
SWIDTH 550 0
DWIDTH 11 0
BBX 8 12 2 0
BITMAP
0f
18
30
30
fe
30
30
30
30
30
30
30
ENDCHAR
STARTCHAR g
ENCODING 103
SWIDTH 550 0
DWIDTH 11 0
BBX 8 12 1 -4
BITMAP
3f
67
c3
c3
c3
c3
67
3f
03
03
06
7c
ENDCHAR
STARTCHAR h
ENCODING 104
SWIDTH 550 0
DWIDTH 11 0
BBX 7 12 2 0
BITMAP
c0
c0
c0
c0
fc
ee
c6
c6
c6
c6
c6
c6
ENDCHAR
STARTCHAR i
ENCODING 105
SWIDTH 550 0
DWIDTH 11 0
BBX 2 11 5 0
BITMAP
c0
c0
00
c0
c0
c0
c0
c0
c0
c0
c0
ENDCHAR
STARTCHAR j
ENCODING 106
SWIDTH 550 0
DWIDTH 11 0
BBX 7 15 2 -4
BITMAP
06
06
00
06
06
06
06
06
06
06
06
06
06
0c
f8
ENDCHAR
STARTCHAR k
ENCODING 107
SWIDTH 550 0
DWIDTH 11 0
BBX 6 12 2 0
BITMAP
c0
c0
c0
c0
c8
d8
f0
e0
f0
d8
cc
c4
ENDCHAR
STARTCHAR l
ENCODING 108
SWIDTH 550 0
DWIDTH 11 0
BBX 2 12 5 0
BITMAP
c0
c0
c0
c0
c0
c0
c0
c0
c0
c0
c0
c0
ENDCHAR
STARTCHAR m
ENCODING 109
SWIDTH 550 0
DWIDTH 11 0
BBX 8 8 1 0
BITMAP
b6
db
db
db
db
db
db
db
ENDCHAR
STARTCHAR n
ENCODING 110
SWIDTH 550 0
DWIDTH 11 0
BBX 7 8 2 0
BITMAP
bc
c6
c6
c6
c6
c6
c6
c6
ENDCHAR
STARTCHAR o
ENCODING 111
SWIDTH 550 0
DWIDTH 11 0
BBX 8 8 1 0
BITMAP
3c
66
c3
c3
c3
c3
66
3c
ENDCHAR
STARTCHAR p
ENCODING 112
SWIDTH 550 0
DWIDTH 11 0
BBX 8 12 2 -4
BITMAP
bc
e6
c3
c3
c3
c3
c6
fc
c0
c0
c0
c0
ENDCHAR
STARTCHAR q
ENCODING 113
SWIDTH 550 0
DWIDTH 11 0
BBX 8 12 1 -4
BITMAP
3d
63
c3
c3
c3
c3
63
3f
03
03
03
03
ENDCHAR
STARTCHAR r
ENCODING 114
SWIDTH 550 0
DWIDTH 11 0
BBX 6 8 3 0
BITMAP
b8
cc
c0
c0
c0
c0
c0
c0
ENDCHAR
STARTCHAR s
ENCODING 115
SWIDTH 550 0
DWIDTH 11 0
BBX 7 8 2 0
BITMAP
7c
c6
c0
70
0c
c6
c6
7c
ENDCHAR
STARTCHAR t
ENCODING 116
SWIDTH 550 0
DWIDTH 11 0
BBX 6 11 3 0
BITMAP
30
30
30
fc
30
30
30
30
30
30
30
ENDCHAR
STARTCHAR u
ENCODING 117
SWIDTH 550 0
DWIDTH 11 0
BBX 7 8 2 0
BITMAP
c6
c6
c6
c6
c6
c6
c6
7c
ENDCHAR
STARTCHAR v
ENCODING 118
SWIDTH 550 0
DWIDTH 11 0
BBX 7 8 2 0
BITMAP
c6
c6
6c
6c
28
38
10
10
ENDCHAR
STARTCHAR w
ENCODING 119
SWIDTH 550 0
DWIDTH 11 0
BBX 7 8 2 0
BITMAP
c6
c6
d6
d6
fe
ee
44
44
ENDCHAR
STARTCHAR x
ENCODING 120
SWIDTH 550 0
DWIDTH 11 0
BBX 6 8 2 0
BITMAP
cc
cc
78
30
30
78
cc
cc
ENDCHAR
STARTCHAR y
ENCODING 121
SWIDTH 550 0
DWIDTH 11 0
BBX 7 12 2 -4
BITMAP
c6
c6
c6
6c
6c
38
30
30
30
30
30
60
ENDCHAR
STARTCHAR z
ENCODING 122
SWIDTH 550 0
DWIDTH 11 0
BBX 7 8 2 0
BITMAP
fe
06
0c
18
30
60
c0
fe
ENDCHAR
STARTCHAR braceleft
ENCODING 123
SWIDTH 550 0
DWIDTH 11 0
BBX 5 15 3 -3
BITMAP
18
30
30
30
30
30
30
e0
30
30
30
30
30
30
18
ENDCHAR
STARTCHAR bar
ENCODING 124
SWIDTH 550 0
DWIDTH 11 0
BBX 2 15 5 -3
BITMAP
c0
c0
c0
c0
c0
c0
c0
c0
c0
c0
c0
c0
c0
c0
c0
ENDCHAR
STARTCHAR braceright
ENCODING 125
SWIDTH 550 0
DWIDTH 11 0
BBX 5 15 3 -3
BITMAP
c0
60
60
60
60
60
60
38
60
60
60
60
60
60
c0
ENDCHAR
STARTCHAR asciitilde
ENCODING 126
SWIDTH 550 0
DWIDTH 11 0
BBX 9 4 1 3
BITMAP
6000
f980
1f00
0600
ENDCHAR
STARTCHAR space
ENCODING 160
SWIDTH 550 0
DWIDTH 11 0
BBX 0 0 0 0
BITMAP
ENDCHAR
STARTCHAR KO_KAI
ENCODING 161
SWIDTH 550 0
DWIDTH 11 0
BBX 7 10 2 0
BITMAP
78
cc
c6
66
c6
c6
c6
c6
c6
c6
ENDCHAR
STARTCHAR KHO_KHAI
ENCODING 162
SWIDTH 550 0
DWIDTH 11 0
BBX 8 10 1 0
BITMAP
73
db
ab
4b
1b
33
33
33
33
7f
ENDCHAR
STARTCHAR KHO_KHUAT
ENCODING 163
SWIDTH 550 0
DWIDTH 11 0
BBX 8 10 1 0
BITMAP
53
fb
ab
db
2b
33
33
33
33
7f
ENDCHAR
STARTCHAR KHO_KHWAI
ENCODING 164
SWIDTH 550 0
DWIDTH 11 0
BBX 8 10 2 0
BITMAP
3c
42
c3
cb
d7
f7
6b
63
63
63
ENDCHAR
STARTCHAR KHO_KHON
ENCODING 165
SWIDTH 550 0
DWIDTH 11 0
BBX 8 10 2 0
BITMAP
2c
56
c3
cb
d7
f7
6b
63
63
63
ENDCHAR
STARTCHAR KHO_RAKHANG
ENCODING 166
SWIDTH 550 0
DWIDTH 11 0
BBX 9 10 1 0
BITMAP
6980
dd80
ad80
dd80
6980
0980
3980
6d80
6b80
3180
ENDCHAR
STARTCHAR NGO_NGU
ENCODING 167
SWIDTH 550 0
DWIDTH 11 0
BBX 7 10 2 0
BITMAP
0c
1a
1a
0e
c6
66
36
1e
0e
06
ENDCHAR
STARTCHAR CHO_CHAN
ENCODING 168
SWIDTH 550 0
DWIDTH 11 0
BBX 7 10 2 0
BITMAP
38
64
c6
36
6e
6e
36
06
06
06
ENDCHAR
STARTCHAR CHO_CHING
ENCODING 169
SWIDTH 550 0
DWIDTH 11 0
BBX 9 10 1 0
BITMAP
7800
cc00
0600
4600
a600
a600
e700
6e80
7680
6300
ENDCHAR
STARTCHAR CHO_CHANG
ENCODING 170
SWIDTH 550 0
DWIDTH 11 0
BBX 9 12 1 0
BITMAP
0180
0180
7300
cc00
ae00
4b00
3300
3300
3300
3300
3300
7f00
ENDCHAR
STARTCHAR SO_SO
ENCODING 171
SWIDTH 550 0
DWIDTH 11 0
BBX 9 12 1 0
BITMAP
0180
0180
5300
ae00
fa00
db00
2b00
3300
3300
3300
3300
7f00
ENDCHAR
STARTCHAR CHO_CHOE
ENCODING 172
SWIDTH 550 0
DWIDTH 11 0
BBX 9 10 1 0
BITMAP
7180
d980
cd80
6d80
cd80
cd80
cd80
b780
b580
4880
ENDCHAR
STARTCHAR YO_YING
ENCODING 173
SWIDTH 550 0
DWIDTH 11 0
BBX 9 14 1 -4
BITMAP
7180
d980
cd80
6d80
cd80
cd80
cd80
ad80
ad80
5f80
0000
3300
6b00
3e00
ENDCHAR
STARTCHAR DO_CHADA
ENCODING 174
SWIDTH 550 0
DWIDTH 11 0
BBX 8 14 1 -4
BITMAP
3c
66
73
33
33
33
73
d3
d3
63
03
77
db
67
ENDCHAR
STARTCHAR TO_PATAK
ENCODING 175
SWIDTH 550 0
DWIDTH 11 0
BBX 9 14 0 -4
BITMAP
1e00
3300
3980
1980
1980
1980
3980
6980
6980
3180
0980
f280
b780
6d80
ENDCHAR
STARTCHAR THO_THAN
ENCODING 176
SWIDTH 550 0
DWIDTH 11 0
BBX 10 14 0 -4
BITMAP
0f00
19c0
0e00
0300
0580
0b80
0b80
0780
0180
0180
1800
7280
b780
6d80
ENDCHAR
STARTCHAR THO_NANGMONTHO
ENCODING 177
SWIDTH 550 0
DWIDTH 11 0
BBX 9 10 1 0
BITMAP
6900
d780
a580
5580
2980
1980
3180
3180
3180
3180
ENDCHAR
STARTCHAR THO_PHUTHAO
ENCODING 178
SWIDTH 550 0
DWIDTH 11 0
BBX 10 10 1 0
BITMAP
68c0
dcc0
c6c0
d2c0
eac0
eac0
56c0
6ec0
6bc0
64c0
ENDCHAR
STARTCHAR NO_NEN
ENCODING 179
SWIDTH 550 0
DWIDTH 11 0
BBX 9 10 1 0
BITMAP
6300
b300
db00
6b00
cb00
cb00
cb00
ab80
ae80
4d00
ENDCHAR
STARTCHAR DO_DEK
ENCODING 180
SWIDTH 550 0
DWIDTH 11 0
BBX 7 10 2 0
BITMAP
78
cc
96
ae
ae
de
76
66
66
66
ENDCHAR
STARTCHAR TO_TAO
ENCODING 181
SWIDTH 550 0
DWIDTH 11 0
BBX 7 10 2 0
BITMAP
6c
d6
c6
d6
ee
ee
d6
66
66
66
ENDCHAR
STARTCHAR THO_THUNG
ENCODING 182
SWIDTH 550 0
DWIDTH 11 0
BBX 7 10 2 0
BITMAP
78
cc
e6
46
c6
c6
c6
a6
a6
46
ENDCHAR
STARTCHAR THO_THAHAN
ENCODING 183
SWIDTH 550 0
DWIDTH 11 0
BBX 8 10 1 0
BITMAP
44
ae
bb
73
33
33
33
33
33
33
ENDCHAR
STARTCHAR THO_THONG
ENCODING 184
SWIDTH 550 0
DWIDTH 11 0
BBX 7 10 2 0
BITMAP
3c
6e
c0
78
0c
66
66
66
66
fe
ENDCHAR
STARTCHAR NO_NU
ENCODING 185
SWIDTH 550 0
DWIDTH 11 0
BBX 9 10 1 0
BITMAP
6300
b300
b300
7300
3300
3300
3300
3680
3e80
3980
ENDCHAR
STARTCHAR BO_BAIMAI
ENCODING 186
SWIDTH 550 0
DWIDTH 11 0
BBX 9 10 1 0
BITMAP
6180
d180
d180
7180
3180
3180
3180
3180
3180
7f80
ENDCHAR
STARTCHAR PO_PLA
ENCODING 187
SWIDTH 550 0
DWIDTH 11 0
BBX 9 15 2 0
BITMAP
0180
0180
0180
0180
0180
6180
d180
d180
7180
3180
3180
3180
3180
3180
7f80
ENDCHAR
STARTCHAR PHO_PHUNG
ENCODING 188
SWIDTH 550 0
DWIDTH 11 0
BBX 7 10 2 0
BITMAP
66
b6
b6
e6
c6
c6
d6
d6
ee
c6
ENDCHAR
STARTCHAR FO_FA
ENCODING 189
SWIDTH 550 0
DWIDTH 11 0
BBX 7 15 4 0
BITMAP
06
06
06
06
06
66
b6
b6
e6
c6
c6
d6
d6
ee
c6
ENDCHAR
STARTCHAR PHO_PHAN
ENCODING 190
SWIDTH 550 0
DWIDTH 11 0
BBX 9 10 1 0
BITMAP
6180
b180
b180
7180
3180
3580
3580
3b80
3180
3180
ENDCHAR
STARTCHAR FO_FAN
ENCODING 191
SWIDTH 550 0
DWIDTH 11 0
BBX 9 15 2 0
BITMAP
0180
0180
0180
0180
0180
6180
b180
b180
7180
3180
3580
3580
3b80
3180
3180
ENDCHAR
STARTCHAR PHO_SAMPHAO
ENCODING 192
SWIDTH 550 0
DWIDTH 11 0
BBX 8 10 1 0
BITMAP
3c
46
63
33
63
63
63
a3
a3
43
ENDCHAR
STARTCHAR MO_MA
ENCODING 193
SWIDTH 550 0
DWIDTH 11 0
BBX 8 10 2 0
BITMAP
63
d3
d3
73
33
33
73
db
d7
73
ENDCHAR
STARTCHAR YO_YAK
ENCODING 194
SWIDTH 550 0
DWIDTH 11 0
BBX 9 10 1 0
BITMAP
3180
6980
6980
7180
6180
3980
6180
6180
6180
ff80
ENDCHAR
STARTCHAR RO_RUA
ENCODING 195
SWIDTH 550 0
DWIDTH 11 0
BBX 7 10 3 0
BITMAP
7e
c0
f8
0c
06
06
0e
16
16
0c
ENDCHAR
STARTCHAR RU
ENCODING 196
SWIDTH 550 0
DWIDTH 11 0
BBX 7 14 2 -4
BITMAP
78
cc
c6
66
c6
c6
c6
a6
a6
46
06
06
06
06
ENDCHAR
STARTCHAR LO_LING
ENCODING 197
SWIDTH 550 0
DWIDTH 11 0
BBX 7 10 2 0
BITMAP
78
cc
06
66
f6
de
ce
a6
a6
46
ENDCHAR
STARTCHAR LU
ENCODING 198
SWIDTH 550 0
DWIDTH 11 0
BBX 7 14 2 -4
BITMAP
38
6c
c6
66
66
66
66
a6
a6
46
06
06
06
06
ENDCHAR
STARTCHAR WO_WAEN
ENCODING 199
SWIDTH 550 0
DWIDTH 11 0
BBX 7 10 2 0
BITMAP
78
cc
06
06
06
06
0e
1a
1a
0c
ENDCHAR
STARTCHAR SO_SALA
ENCODING 200
SWIDTH 550 0
DWIDTH 11 0
BBX 8 13 2 0
BITMAP
03
03
03
3e
66
c3
cb
d7
f7
6b
63
63
63
ENDCHAR
STARTCHAR SO_RUSI
ENCODING 201
SWIDTH 550 0
DWIDTH 11 0
BBX 10 10 1 0
BITMAP
4300
a340
a3c0
6f80
7b00
6f00
6700
6300
6300
ff00
ENDCHAR
STARTCHAR SO_SUA
ENCODING 202
SWIDTH 550 0
DWIDTH 11 0
BBX 8 12 2 0
BITMAP
03
03
7e
cc
06
66
f6
de
ce
a6
a6
46
ENDCHAR
STARTCHAR HO_HIP
ENCODING 203
SWIDTH 550 0
DWIDTH 11 0
BBX 8 10 1 0
BITMAP
42
a5
a5
6e
7b
73
63
63
63
63
ENDCHAR
STARTCHAR LO_CHULA
ENCODING 204
SWIDTH 550 0
DWIDTH 11 0
BBX 9 16 1 0
BITMAP
0180
0780
0500
0700
0380
0180
6180
b180
b180
7180
3180
3580
3580
3b80
3180
3180
ENDCHAR
STARTCHAR O_ANG
ENCODING 205
SWIDTH 550 0
DWIDTH 11 0
BBX 8 10 1 0
BITMAP
3c
66
03
33
6b
6b
73
63
63
ff
ENDCHAR
STARTCHAR HO_NOKHUK
ENCODING 206
SWIDTH 550 0
DWIDTH 11 0
BBX 9 12 1 0
BITMAP
0180
0180
3f00
6600
0300
3300
6b00
6b00
7300
6300
6300
ff00
ENDCHAR
STARTCHAR PAIYANNOI
ENCODING 207
SWIDTH 550 0
DWIDTH 11 0
BBX 7 10 2 0
BITMAP
66
b6
b6
ee
76
06
06
06
06
06
ENDCHAR
STARTCHAR SARA_A
ENCODING 208
SWIDTH 550 0
DWIDTH 11 0
BBX 7 10 2 0
BITMAP
40
a6
a6
7c
38
40
a6
a6
7c
38
ENDCHAR
STARTCHAR MAI_HAN-AKAT
ENCODING 209
SWIDTH 0 0
DWIDTH 0 0
BBX 7 5 -9 11
BITMAP
40
a6
a6
7c
38
ENDCHAR
STARTCHAR SARA_AA
ENCODING 210
SWIDTH 550 0
DWIDTH 11 0
BBX 7 10 2 0
BITMAP
38
6c
c6
06
06
06
06
06
06
06
ENDCHAR
STARTCHAR SARA_AM
ENCODING 211
SWIDTH 550 0
DWIDTH 11 0
BBX 9 13 0 0
BITMAP
6000
b000
6000
0600
0f00
1980
0180
0180
0180
0180
0180
0180
0180
ENDCHAR
STARTCHAR SARA_I
ENCODING 212
SWIDTH 0 0
DWIDTH 0 0
BBX 6 3 -9 11
BITMAP
78
cc
fc
ENDCHAR
STARTCHAR SARA_II
ENCODING 213
SWIDTH 0 0
DWIDTH 0 0
BBX 6 4 -9 11
BITMAP
04
74
dc
fc
ENDCHAR
STARTCHAR SARA_UE
ENCODING 214
SWIDTH 0 0
DWIDTH 0 0
BBX 6 4 -9 11
BITMAP
08
74
dc
f8
ENDCHAR
STARTCHAR SARA_UEE
ENCODING 215
SWIDTH 0 0
DWIDTH 0 0
BBX 6 4 -9 11
BITMAP
14
74
dc
fc
ENDCHAR
STARTCHAR SARA_U
ENCODING 216
SWIDTH 0 0
DWIDTH 0 0
BBX 3 4 -5 -5
BITMAP
40
a0
60
60
ENDCHAR
STARTCHAR SARA_UU
ENCODING 217
SWIDTH 0 0
DWIDTH 0 0
BBX 6 4 -7 -5
BITMAP
4c
ac
6c
3c
ENDCHAR
STARTCHAR PHINTHU
ENCODING 218
SWIDTH 0 0
DWIDTH 0 0
BBX 4 4 -8 -5
BITMAP
60
f0
f0
60
ENDCHAR
STARTCHAR Ucircumflex
ENCODING 219
SWIDTH 550 0
DWIDTH 11 0
BBX 0 0 0 0
BITMAP
ENDCHAR
STARTCHAR Udieresis
ENCODING 220
SWIDTH 550 0
DWIDTH 11 0
BBX 0 0 0 0
BITMAP
ENDCHAR
STARTCHAR Yacute
ENCODING 221
SWIDTH 550 0
DWIDTH 11 0
BBX 0 0 0 0
BITMAP
ENDCHAR
STARTCHAR Thorn
ENCODING 222
SWIDTH 550 0
DWIDTH 11 0
BBX 0 0 0 0
BITMAP
ENDCHAR
STARTCHAR SYMBOL_BAHT
ENCODING 223
SWIDTH 550 0
DWIDTH 11 0
BBX 9 15 1 -2
BITMAP
1400
1400
fe00
d700
d580
d580
d700
fe00
d700
d580
d580
d700
fe00
1400
1400
ENDCHAR
STARTCHAR SARA_E
ENCODING 224
SWIDTH 550 0
DWIDTH 11 0
BBX 4 10 3 0
BITMAP
c0
c0
c0
c0
c0
c0
e0
d0
d0
60
ENDCHAR
STARTCHAR SARA_AE
ENCODING 225
SWIDTH 550 0
DWIDTH 11 0
BBX 7 10 2 0
BITMAP
cc
cc
cc
cc
cc
cc
ee
aa
aa
66
ENDCHAR
STARTCHAR SARA_O
ENCODING 226
SWIDTH 550 0
DWIDTH 11 0
BBX 7 15 1 0
BITMAP
38
4e
e6
30
30
30
30
30
30
30
30
38
34
34
18
ENDCHAR
STARTCHAR SARA_AI_MAIMUAN
ENCODING 227
SWIDTH 550 0
DWIDTH 11 0
BBX 8 15 1 0
BITMAP
30
78
cc
ac
dc
6c
0c
0c
0c
0c
0c
0e
0d
0d
06
ENDCHAR
STARTCHAR SARA_AI_MAIMALAI
ENCODING 228
SWIDTH 550 0
DWIDTH 11 0
BBX 8 15 1 0
BITMAP
8c
dc
6c
2c
0c
0c
0c
0c
0c
0c
0c
0e
0d
0d
06
ENDCHAR
STARTCHAR LAKKHANGYAO
ENCODING 229
SWIDTH 550 0
DWIDTH 11 0
BBX 7 13 2 -3
BITMAP
38
6c
c6
06
06
06
06
06
06
06
06
06
06
ENDCHAR
STARTCHAR MAIYAMOK
ENCODING 230
SWIDTH 550 0
DWIDTH 11 0
BBX 7 13 2 -3
BITMAP
68
dc
c6
a6
a6
46
06
06
06
06
0e
1c
30
ENDCHAR
STARTCHAR MAITAIKHU
ENCODING 231
SWIDTH 0 0
DWIDTH 0 0
BBX 7 6 -9 14
BITMAP
0e
3c
40
d4
ea
4e
ENDCHAR
STARTCHAR MAI_EK
ENCODING 232
SWIDTH 0 0
DWIDTH 0 0
BBX 2 4 -5 16
BITMAP
c0
c0
c0
c0
ENDCHAR
STARTCHAR MAI_THO
ENCODING 233
SWIDTH 0 0
DWIDTH 0 0
BBX 6 5 -8 15
BITMAP
6c
ac
6c
38
70
ENDCHAR
STARTCHAR MAI_TRI
ENCODING 234
SWIDTH 0 0
DWIDTH 0 0
BBX 8 5 -10 15
BITMAP
69
dd
cd
af
4e
ENDCHAR
STARTCHAR MAI_CHATTAWA
ENCODING 235
SWIDTH 0 0
DWIDTH 0 0
BBX 6 5 -9 15
BITMAP
30
30
fc
30
30
ENDCHAR
STARTCHAR THANTHAKHAT
ENCODING 236
SWIDTH 0 0
DWIDTH 0 0
BBX 5 6 -7 14
BITMAP
08
38
70
c0
a0
60
ENDCHAR
STARTCHAR NIKHAHIT
ENCODING 237
SWIDTH 0 0
DWIDTH 0 0
BBX 4 3 -8 16
BITMAP
60
d0
60
ENDCHAR
STARTCHAR YAMAKKAN
ENCODING 238
SWIDTH 0 0
DWIDTH 0 0
BBX 6 5 -9 15
BITMAP
1c
38
70
c0
70
ENDCHAR
STARTCHAR FONGMAN
ENCODING 239
SWIDTH 550 0
DWIDTH 11 0
BBX 7 10 2 0
BITMAP
38
44
d6
ee
ee
ee
ee
d6
44
38
ENDCHAR
STARTCHAR THAI_ZERO
ENCODING 240
SWIDTH 550 0
DWIDTH 11 0
BBX 9 10 1 0
BITMAP
1c00
3200
6300
c780
cd80
d980
f180
6300
2600
1c00
ENDCHAR
STARTCHAR THAI_ONE
ENCODING 241
SWIDTH 550 0
DWIDTH 11 0
BBX 9 10 1 0
BITMAP
1c00
3e00
6300
d980
cd80
6d80
3980
c300
6600
3c00
ENDCHAR
STARTCHAR THAI_TWO
ENCODING 242
SWIDTH 550 0
DWIDTH 11 0
BBX 10 12 0 0
BITMAP
8000
4000
4580
4ec0
58c0
54c0
54c0
48c0
40c0
60c0
3fc0
1fc0
ENDCHAR
STARTCHAR THAI_THREE
ENCODING 243
SWIDTH 550 0
DWIDTH 11 0
BBX 9 10 1 0
BITMAP
2200
7700
dd80
c980
c180
c180
e180
b180
b180
6180
ENDCHAR
STARTCHAR THAI_FOUR
ENCODING 244
SWIDTH 550 0
DWIDTH 11 0
BBX 9 13 1 0
BITMAP
0180
0180
0300
1e00
3c00
6000
c400
ca00
ca00
cc00
c600
6300
3f80
ENDCHAR
STARTCHAR THAI_FIVE
ENCODING 245
SWIDTH 550 0
DWIDTH 11 0
BBX 9 16 1 0
BITMAP
0180
0180
0f00
1a00
0e00
0200
1e00
3c00
6000
c400
ca00
ca00
ce00
c600
6300
3f80
ENDCHAR
STARTCHAR THAI_SIX
ENCODING 246
SWIDTH 550 0
DWIDTH 11 0
BBX 9 11 1 0
BITMAP
8000
c000
7e00
3f00
0380
3180
5980
5980
7180
7300
3e00
ENDCHAR
STARTCHAR THAI_SEVEN
ENCODING 247
SWIDTH 550 0
DWIDTH 11 0
BBX 9 13 1 0
BITMAP
0400
0600
0300
0180
6c80
d680
d680
c680
c680
c680
a780
a700
4600
ENDCHAR
STARTCHAR THAI_EIGHT
ENCODING 248
SWIDTH 550 0
DWIDTH 11 0
BBX 9 13 1 0
BITMAP
0080
0180
0300
3e00
7c00
c000
c000
c000
c800
db00
de80
f680
6300
ENDCHAR
STARTCHAR THAI_NINE
ENCODING 249
SWIDTH 550 0
DWIDTH 11 0
BBX 9 12 1 0
BITMAP
0080
0080
0480
6e80
fb00
d900
cc00
c600
ca00
7400
3400
1800
ENDCHAR
STARTCHAR ANGKHANKHU
ENCODING 250
SWIDTH 550 0
DWIDTH 11 0
BBX 7 10 2 0
BITMAP
5a
da
da
da
7a
1a
1a
1a
1a
1a
ENDCHAR
STARTCHAR KHOMUT
ENCODING 251
SWIDTH 550 0
DWIDTH 11 0
BBX 9 8 1 2
BITMAP
6000
c000
d800
dd80
de00
dc00
f800
6000
ENDCHAR
STARTCHAR udieresis
ENCODING 252
SWIDTH 550 0
DWIDTH 11 0
BBX 0 0 0 0
BITMAP
ENDCHAR
STARTCHAR yacute
ENCODING 253
SWIDTH 550 0
DWIDTH 11 0
BBX 0 0 0 0
BITMAP
ENDCHAR
STARTCHAR thorn
ENCODING 254
SWIDTH 550 0
DWIDTH 11 0
BBX 0 0 0 0
BITMAP
ENDCHAR
STARTCHAR ydieresis
ENCODING 255
SWIDTH 550 0
DWIDTH 11 0
BBX 0 0 0 0
BITMAP
ENDCHAR
ENDFONT
